# xmcd CD database file
#
# Track frame offsets:
#	150
#	10285
#	22455
#	33694
#	42488
#	55442
#	66648
#	80344
#	91109
#	102112
#	112018
#	120735
#	132805
#	144006
#	156067
#	167235
#	178105
#	190047
#	199781
#	209885
#	222360
#	234535
#	246615
#	257726
#
# Disc length: 3575 seconds
#
# Revision: 5
# Processed by: cddbd v1.4PL0 Copyright (c) Steve Scherf et al.
# Submitted via: CDex 1.40Beta8
#
DISCID=6f0df518
DTITLE=Carl Perkins - Classic - 05
DYEAR=1900
DGENRE=Rock and Roll
TTITLE0=Blue Suede Shoes
TTITLE1=Big Bad Blues
TTITLE2=Say When
TTITLE3=Lonely Heart
TTITLE4=A Love I'll Never Win
TTITLE5=Let My Baby Be
TTITLE6=Monkey Shine
TTITLE7=Mama Of My Song
TTITLE8=One Of These Days
TTITLE9=I Wouldn't Have You
TTITLE10=Help Me Find My Baby
TTITLE11=After Sundown
TTITLE12=For A Little While
TTITLE13=Just For You
TTITLE14=When The Right Time Comes
TTITLE15=The Fool I Used To Be
TTITLE16=Forget Me (Next Time Around)
TTITLE17=Hollywood
TTITLE18=I've Just Got Back From There
TTITLE19=Too Much For A Man To Understand
TTITLE20=Turn Around
TTITLE21=Unhappy Girls
TTITLE22=Someday Somewhere Someone Waits For Me
TTITLE23=Anyway The Wind Blows
EXTD=ID3G: 78
EXTT0=
EXTT1=
EXTT2=
EXTT3=
EXTT4=
EXTT5=
EXTT6=
EXTT7=
EXTT8=
EXTT9=
EXTT10=
EXTT11=
EXTT12=
EXTT13=
EXTT14=
EXTT15=
EXTT16=
EXTT17=
EXTT18=
EXTT19=
EXTT20=
EXTT21=
EXTT22=
EXTT23=
PLAYORDER=
